<?xml version="1.0" standalone="no"?>
<!DOCTYPE svg PUBLIC "-//W3C//DTD SVG 20010904//EN"
 "http://www.w3.org/TR/2001/REC-SVG-20010904/DTD/svg10.dtd">
<svg version="1.0" xmlns="http://www.w3.org/2000/svg"
 width="200.000000pt" height="200.000000pt" viewBox="0 0 200.000000 200.000000"
 preserveAspectRatio="xMidYMid meet">
<metadata>
Created by potrace 1.14, written by Peter Selinger 2001-2017
</metadata>
<g transform="translate(0.000000,200.000000) scale(0.100000,-0.100000)"
fill="#000000" stroke="none">
<path d="M7 1993 c-4 -3 -7 -453 -7 -1000 l0 -993 1000 0 1000 0 0 1000 0
1000 -993 0 c-547 0 -997 -3 -1000 -7z m1541 -329 c37 -10 36 -24 -73 -524
-37 -168 -67 -305 -68 -306 -1 -1 -12 -6 -24 -13 -49 -25 -48 -26 -62 222 -7
127 -16 306 -18 397 l-5 166 88 31 c91 32 122 37 162 27z m-516 -302 c62 -30
108 -63 108 -77 0 -10 -94 -125 -102 -125 -4 0 -10 5 -13 10 -4 6 -25 20 -48
32 -56 29 -147 29 -202 1 -91 -48 -130 -125 -130 -263 1 -108 14 -157 58 -206
56 -65 156 -96 236 -74 l41 11 0 79 0 80 -70 0 -70 0 0 85 0 85 160 0 160 0 0
-210 0 -210 -39 -25 c-94 -63 -238 -89 -353 -66 -125 26 -237 110 -286 214
-34 71 -55 192 -47 271 26 271 201 434 452 422 66 -3 94 -10 145 -34z m397
-689 c62 -46 76 -142 28 -196 -32 -35 -59 -47 -113 -47 -42 0 -51 4 -86 40
-33 36 -38 47 -38 88 0 112 121 179 209 115z"/>
</g>
</svg>
